<?xml version="1.0" encoding="UTF-8"?>
<svg version="1.1" xmlns="http://www.w3.org/2000/svg" width="512" height="512">
<path d="M0 0 C6.46680399 4.76695837 11.36288562 9.89112343 13 18 C13.1421701 19.58567839 13.24504041 21.17518632 13.31640625 22.765625 C13.37924805 24.09980469 13.37924805 24.09980469 13.44335938 25.4609375 C13.48267578 26.38132812 13.52199219 27.30171875 13.5625 28.25 C13.60568359 29.18585937 13.64886719 30.12171875 13.69335938 31.0859375 C13.7991805 33.39048641 13.90126557 35.69513839 14 38 C14.18062988 37.37544922 14.36125977 36.75089844 14.54736328 36.10742188 C15.38939176 33.23292921 16.25695455 30.36673832 17.125 27.5 C17.40859375 26.51773437 17.6921875 25.53546875 17.984375 24.5234375 C20.26345804 17.09164497 23.11246587 10.92030076 29.44921875 6.16015625 C30.18785156 5.79792969 30.92648437 5.43570312 31.6875 5.0625 C32.80705078 4.49208984 32.80705078 4.49208984 33.94921875 3.91015625 C40.35993792 1.06501803 47.93360341 0.85595548 54.6796875 2.75390625 C62.95090054 6.30467953 67.14927157 10.95790178 71 19 C74.3607882 29.08236461 71.16682471 39.32819944 67.9375 49 C67.16539258 51.35077993 66.40322833 53.70485531 65.65234375 56.0625 C65.31195068 57.08472656 64.97155762 58.10695312 64.62084961 59.16015625 C63.94368123 62.25760909 63.98860345 64.00890875 65 67 C66.24976433 68.70498082 66.24976433 68.70498082 67.90625 70.078125 C68.77443359 70.85929687 68.77443359 70.85929687 69.66015625 71.65625 C70.26730469 72.1821875 70.87445313 72.708125 71.5 73.25 C72.10714844 73.79140625 72.71429688 74.3328125 73.33984375 74.890625 C74.88626047 76.26827909 76.44239813 77.63500481 78 79 C78.33 79.33 78.66 79.66 79 80 C83.49163009 80.23004507 87.59442837 79.80344422 91.99975586 78.93188477 C105.36929076 76.29259147 122.78118253 73.53294488 135 81 C143.61807212 87.45110023 151.05830921 95.11159547 153 106 C153.92834425 115.57078715 153.80997944 124.43589026 149 133 C148.443125 134.03125 147.88625 135.0625 147.3125 136.125 C141.39043137 143.4875718 134.62817362 148.25331918 126 152 C126.46148437 152.4640625 126.92296875 152.928125 127.3984375 153.40625 C150.00229666 177.35025891 156.29678859 208.48870706 155.90185547 240.375 C155.62073368 267.85337691 159.39309897 293.8828239 164.01000977 320.9050293 C166.89735679 337.88475203 169.23450116 354.86597846 171 372 C171.15251221 373.42699219 171.15251221 373.42699219 171.30810547 374.8828125 C171.99368791 381.71663958 172.21562594 388.50878171 172.25 395.375 C172.2809375 396.95474609 172.2809375 396.95474609 172.3125 398.56640625 C172.36178829 408.28852214 172.36178829 408.28852214 169 412 C166.3125 412.8125 166.3125 412.8125 164 413 C163.7689121 416.36361274 163.63767941 419.64320632 164 423 C165.29233607 424.37310707 166.62437146 425.71034824 168 427 C170.30393642 440.56762557 160.44406199 457.23846575 152.87109375 468.03515625 C133.40617169 492.7928657 104.25565502 504.46199119 73.7590332 508.60302734 C67.34404233 509.28048238 60.94560173 509.39336437 54.5 509.375 C53.46117676 509.37468277 53.46117676 509.37468277 52.40136719 509.37435913 C34.15722748 509.31915156 17.16614495 506.08515423 0 500 C-1.55074219 499.46632813 -1.55074219 499.46632813 -3.1328125 498.921875 C-30.35261708 489.03642168 -55.01083503 473.71621122 -77 455 C-78.01578125 454.16855469 -79.0315625 453.33710938 -80.078125 452.48046875 C-94.64948627 440.44541216 -108.48160068 427.00295709 -120 412 C-121.4760737 410.22658771 -122.95536042 408.45584584 -124.4375 406.6875 C-143.43304144 383.40477039 -168.56972366 348.95217128 -172.4375 318.5625 C-171.93037346 315.59218741 -171.12370875 314.12370875 -169 312 C-168.34 312 -167.68 312 -167 312 C-167.48026848 309.05181069 -167.48026848 309.05181069 -169 306 C-172.454817 304.26931729 -172.454817 304.26931729 -176 303 C-187.59981438 285.60027843 -182.3874065 247.8930204 -178.50488281 228.34375 C-177.01971167 221.44933849 -175.18195318 214.7055903 -173 208 C-172.77973145 207.32130859 -172.55946289 206.64261719 -172.33251953 205.94335938 C-167.59171472 191.68995928 -160.72867693 178.23046393 -152 166 C-153.23234375 165.98582031 -154.4646875 165.97164062 -155.734375 165.95703125 C-168.57039829 165.65311246 -179.59861776 164.2677084 -189.25390625 154.93359375 C-196.81543899 146.56008435 -200.76102084 136.70200019 -200.28515625 125.28125 C-198.95099784 114.60798273 -195.01841112 106.21657001 -187 99 C-186.2575 98.319375 -185.515 97.63875 -184.75 96.9375 C-172.25876101 88.13685435 -157.94278265 88.93012518 -143.3203125 89.03515625 C-139.79329066 89.04195175 -136.26628563 89.04494766 -132.73925781 89.04663086 C-130.31888656 89.057258 -127.89853507 89.08409616 -125.47851562 89.12670898 C-121.94511722 89.18415293 -118.41653291 89.17787343 -114.8828125 89.16015625 C-113.80871124 89.19303238 -112.73460999 89.22590851 -111.62796021 89.25978088 C-106.94194363 89.18576081 -104.12826157 89.03772771 -100.59295654 85.78610229 C-98.4335932 83.13998565 -98.4335932 83.13998565 -96.63131714 80.3969574 C-95 78 -95 78 -91.9375 75.4375 C-89.58569221 73.0194291 -89.58569221 73.0194291 -90.12890625 69.17578125 C-90.99248379 62.82947562 -93.03841253 56.82680593 -95 50.75 C-95.7313049 48.4538049 -96.46055258 46.15695334 -97.1875 43.859375 C-97.51105469 42.85358398 -97.83460938 41.84779297 -98.16796875 40.81152344 C-100.76393715 32.03946589 -101.27152937 23.32804887 -97 15 C-92.6377985 8.64101612 -87.65738825 3.75628171 -80 2 C-70.11202984 0.95532502 -62.53471826 1.93115762 -54.75 8.1875 C-46.68999695 15.80758085 -44.869674 26.65035608 -42 37 C-41.96261719 35.96101563 -41.92523438 34.92203125 -41.88671875 33.8515625 C-41.3563081 21.74657434 -40.43418866 11.14822472 -31.1875 2.3125 C-22.2074279 -4.20245427 -9.8233275 -6.09046305 0 0 Z " fill="#020000" transform="translate(270,3)"/>
<path d="M0 0 C12.41224794 -0.56419309 24.65074215 2.00144895 34.25 10.125 C44.01126505 19.47252226 47.4825899 30.50320352 49.875 43.4375 C51.2882586 50.57168485 53.01527668 56.81591641 57 63 C57.5775 63.9075 58.155 64.815 58.75 65.75 C66.22485114 73.22485114 75.73192459 77.89811674 86.3125 78.1875 C96.34080077 78.02201649 106.74319544 74.04946728 114 67 C123.05841399 56.17409059 123.95616559 44.58326925 123 31 C122.72683734 28.6511283 122.37989689 26.334976 122 24 C129.99104234 31.72467426 142.25288894 44.60289254 143.27734375 56.1171875 C142.12182373 68.12808576 130.41008643 77.82159443 122.22265625 85.75 C119.39234126 88.61513433 119.05588473 89.38526796 118.6875 93.4375 C118.66167835 96.96526004 118.66167835 96.96526004 120.625 99 C123.94437745 100.39763261 125.57360614 100.09644604 129 99 C138.11089855 92.60298613 144.48430172 82.86489561 151 74 C153 75 153 75 154 77.88671875 C154.33 79.14097656 154.66 80.39523438 155 81.6875 C155.33 82.90824219 155.66 84.12898438 156 85.38671875 C158.90101438 97.88130022 159.34500699 110.33900221 159.47851562 123.11132812 C159.5181543 124.96467773 159.5181543 124.96467773 159.55859375 126.85546875 C159.57204834 127.96559326 159.58550293 129.07571777 159.59936523 130.21948242 C159.78377595 132.991798 159.78377595 132.991798 161.30883789 134.8527832 C164.22754199 136.83271544 166.61179223 136.48402968 170 136 C174.05061502 131.5150533 173.55324455 125.89911048 173.6875 120.1875 C173.72166016 119.20845703 173.75582031 118.22941406 173.79101562 117.22070312 C173.87319858 114.81391655 173.94244433 112.40748055 174 110 C175.89086914 110.45214844 175.89086914 110.45214844 178 112 C178.80232033 114.98901388 179.3313655 117.71791502 179.74609375 120.765625 C179.88236176 121.65852737 180.01862976 122.55142975 180.1590271 123.47138977 C180.60174037 126.39538325 181.01958111 129.32236928 181.4375 132.25 C181.73793991 134.26452395 182.04027689 136.27876586 182.34448242 138.29272461 C182.8021632 141.32581543 183.25834363 144.35905661 183.70753479 147.39341736 C184.95373483 155.80628969 186.36193773 164.18270058 187.8125 172.5625 C189.6383874 183.34847931 191.16583059 194.09086226 192 205 C192.05639648 205.71414063 192.11279297 206.42828125 192.17089844 207.1640625 C194.47594893 237.60709618 195.01315656 272.3689266 174.35546875 297.328125 C171.70131891 300.35976641 168.88388719 303.18675558 166 306 C164.90558594 307.10794922 164.90558594 307.10794922 163.7890625 308.23828125 C158.7175852 313.09294818 148.41965221 322 141 322 C141 322.66 141 323.32 141 324 C139.68911318 324.31919939 138.37614752 324.62985947 137.0625 324.9375 C136.33160156 325.11152344 135.60070312 325.28554688 134.84765625 325.46484375 C103.141002 331.42343309 70.36023265 323.20488818 42 309 C40.99864014 308.5052417 40.99864014 308.5052417 39.97705078 308.00048828 C23.01706534 299.56657159 7.60186635 289.02784694 -7 277 C-7.80969238 276.34475342 -7.80969238 276.34475342 -8.63574219 275.67626953 C-23.78470896 263.38636536 -38.10826076 249.47741635 -50 234 C-50.90759221 232.90044321 -51.81935954 231.80432465 -52.734375 230.7109375 C-71.59340057 208.01817241 -87.75019473 181.01474331 -96.89453125 152.85546875 C-97.97338197 150.06875541 -98.9343642 148.15170396 -101 146 C-104.60465748 145.18685089 -104.60465748 145.18685089 -108 145 C-108.66 142.69 -109.32 140.38 -110 138 C-109.175 137.4225 -108.35 136.845 -107.5 136.25 C-105.39681795 134.1884063 -105.01423684 133.11101705 -104.6328125 130.13671875 C-104.62164113 125.56204329 -104.88660885 121.42806711 -106 117 C-106.5316523 112.0116574 -106.77815265 107.0100526 -107 102 C-107.05317383 100.87682373 -107.05317383 100.87682373 -107.10742188 99.73095703 C-107.9221872 79.9728978 -104.78488227 60.56915146 -98 42 C-97.67177246 41.06800781 -97.67177246 41.06800781 -97.33691406 40.1171875 C-93.34082627 28.84230409 -87.99201887 16.19860544 -79 8 C-79.165 9.03125 -79.33 10.0625 -79.5 11.125 C-80.95847781 23.42410392 -80.13450804 33.1903737 -74.3125 44.1875 C-67.6907908 52.24093011 -60.29331992 57.76978068 -50 60 C-38.05029611 60.95832322 -28.61967564 57.45555091 -18.75 50.8125 C-10.81946635 42.70172695 -8.13005322 33.21698839 -6.125 22.375 C-4.64813866 14.6518341 -2.81218861 7.35955742 0 0 Z " fill="#EE3946" transform="translate(211,170)"/>
<path d="M0 0 C2.65654824 2.23881093 4.44434343 4.88868686 6 8 C6.13148772 10.36104603 6.2029425 12.72553299 6.24609375 15.08984375 C6.27902802 16.52800097 6.31223973 17.96615187 6.34570312 19.40429688 C6.39314463 21.67337752 6.43758524 23.94243172 6.47680664 26.21166992 C6.51651705 28.40049821 6.56805813 30.5888035 6.62109375 32.77734375 C6.6461499 34.08952881 6.67120605 35.40171387 6.69702148 36.75366211 C6.75441297 40.14618259 6.75441297 40.14618259 9 43 C15.34419217 45.37175184 22.25502309 46.84312211 29 46 C33.7242917 42.66574028 34.55993433 37.80079218 36 32.5 C36.5186461 30.69635982 37.03817501 28.89297326 37.55859375 27.08984375 C38.03933663 25.39330682 38.51982787 23.69669856 39 22 C42.96417175 8.24531154 42.96417175 8.24531154 48 5 C51.9409236 3.63440689 55.24241255 3.1865441 59.1015625 4.97265625 C62.68975663 7.62319471 64.14307756 9.61537742 64.890625 14.04296875 C65.35301178 19.77609782 63.64304036 24.58873302 61.75 29.9375 C61.11903784 31.80052612 60.48882497 33.66380618 59.859375 35.52734375 C59.54911377 36.43548828 59.23885254 37.34363281 58.91918945 38.27929688 C55.7057755 47.2410631 55.7057755 47.2410631 54.8125 56.625 C54.83957031 57.46289062 54.86664063 58.30078125 54.89453125 59.1640625 C54.92933594 59.76992187 54.96414063 60.37578125 55 61 C55.54140625 61.2371875 56.0828125 61.474375 56.640625 61.71875 C59.63250137 63.34347757 62.11159399 65.3501877 64.75 67.5 C65.73484375 68.2940625 66.7196875 69.088125 67.734375 69.90625 C68.85585938 70.94265625 68.85585938 70.94265625 70 72 C70 72.66 70 73.32 70 74 C69.030625 74.350625 68.06125 74.70125 67.0625 75.0625 C63.64593249 76.73944853 63.64593249 76.73944853 63.0625 80.5 C62.80609435 83.97347545 62.80609435 83.97347545 64 87 C70.49126532 88.22546771 75.09300205 87.56286487 81.375 85.6875 C83.06458966 85.21430489 84.75468957 84.74292761 86.4453125 84.2734375 C87.24098633 84.04881836 88.03666016 83.82419922 88.85644531 83.59277344 C92.86878689 82.48321019 96.89228649 81.66005381 101 81 C102.14597656 80.81566406 103.29195312 80.63132812 104.47265625 80.44140625 C127.54032094 77.03874971 127.54032094 77.03874971 135.21875 81.59375 C140.39324898 85.67888077 145.50767351 90.99269133 146.3359375 97.734375 C146.43585147 105.44773368 145.70583501 110.88136311 140.45703125 116.71484375 C133.63020282 123.10425526 125.72218626 124.39505342 116.75 125.375 C97.58673351 127.74115419 79.12535736 132.96969739 61.375 140.5625 C60.71145508 140.84335449 60.04791016 141.12420898 59.36425781 141.41357422 C55.43341634 143.14907401 52.0944448 144.99879647 49 148 C48.08919716 153.86961831 49.51735867 157.67501417 51.84765625 163.015625 C53.27061736 166.70085309 54.24610853 170.41781798 55.1875 174.25 C55.35411133 174.92353516 55.52072266 175.59707031 55.69238281 176.29101562 C58.05582086 186.10389391 60.81717113 198.09145587 55.3359375 207.28515625 C51.71701793 211.93049453 47.63142914 215.19136582 42 217 C34.3489234 217.83290201 28.12724837 217.87678952 22 213 C15.62954549 207.02297023 13.36765208 200.88151834 12.125 192.375 C9.68951936 176.65327942 2.43909439 160.3172301 -10.375 150.4375 C-20.75808008 143.47436618 -32.78420212 141.26110702 -45 140 C-40.34567699 125.1235657 -31.32471883 113.12628593 -18 105 C-12.88879186 102.6319632 -8.56195638 102.01202091 -3 103 C2.98542178 105.44916297 8.61463972 108.40975981 14 112 C19.29752507 111.75665079 22.57750377 110.36517158 26.9375 107.4375 C32.67096275 103.68629226 38.58935154 100.60243833 44.79467773 97.70288086 C48.18469523 96.08087298 49.86917744 95.19623384 52 92 C52.00082535 88.42243314 52.00082535 88.42243314 51 85 C49.38558027 83.3175507 49.38558027 83.3175507 47 83 C41.62740868 83.44440933 37.65676067 85.49655347 33 88 C22.32004875 93.74147755 22.32004875 93.74147755 16.65625 92.4765625 C15.9446875 92.19554688 15.233125 91.91453125 14.5 91.625 C3.19208241 87.2411334 -11.99901554 87.16656553 -23.265625 91.6171875 C-45.75341737 102.98958535 -56.66652581 126.52314958 -64.625 149.1875 C-68.02015152 159.74394795 -71.1136539 170.81400394 -72.47265625 181.83203125 C-73.50087508 188.00896069 -77.2467089 192.60452341 -82.0625 196.4375 C-83.031875 196.953125 -84.00125 197.46875 -85 198 C-86.1446875 198.61875 -86.1446875 198.61875 -87.3125 199.25 C-94.01850861 201.12144426 -99.91502564 200.42971282 -106 197 C-111.87780033 192.68161608 -116.14486995 188.57308681 -117.5390625 181.1171875 C-118.49864792 144.91464676 -98.60109946 101.66566044 -75 75 C-72.62334916 72.54644675 -70.21400849 70.14296301 -67.75 67.77734375 C-65.30660753 65.29577327 -65.02012723 64.35415243 -64.81884766 60.8125 C-65.00558029 56.88255818 -65.73603358 53.75095048 -66.8984375 50 C-67.19096909 49.0409375 -67.19096909 49.0409375 -67.4894104 48.0625 C-68.10883789 46.03873012 -68.74151686 44.01940884 -69.375 42 C-69.79257786 40.64611403 -70.20925213 39.29194903 -70.625 37.9375 C-71.39327779 35.43564392 -72.16769381 32.93604659 -72.94677734 30.4375 C-76.97800174 17.28042083 -76.97800174 17.28042083 -76 11 C-73.94161475 7.66399633 -72.2606736 6.1737824 -69 4 C-64.50803971 3.67193548 -60.93314064 4.37790624 -57.1875 6.875 C-51.09603455 15.5770935 -48.90137011 27.49598255 -45.82421875 37.5625 C-45.48777344 38.63757812 -45.15132813 39.71265625 -44.8046875 40.8203125 C-44.35585205 42.27848389 -44.35585205 42.27848389 -43.89794922 43.76611328 C-43.21990924 46.16633548 -43.21990924 46.16633548 -41 47 C-33.62455025 47.62769785 -26.93671247 45.31223749 -20 43 C-17.57268787 39.35903181 -17.72067625 36.65207621 -17.7265625 32.4453125 C-17.70627107 30.92837807 -17.68542024 29.41145104 -17.6640625 27.89453125 C-17.64148077 25.50921378 -17.62499801 23.12418892 -17.61914062 20.73876953 C-17.60959505 18.43208243 -17.57579439 16.12670486 -17.5390625 13.8203125 C-17.54410797 13.11182159 -17.54915344 12.40333069 -17.55435181 11.67337036 C-17.45882853 6.84331592 -16.4142372 4.39841223 -13 1 C-8.88660628 -1.51374061 -4.50794353 -1.59371741 0 0 Z " fill="#993D2B" transform="translate(262,16)"/>
<path d="M0 0 C18.20662596 16.98690102 31.6911726 39.3123255 32.73924255 64.81790161 C32.78563917 67.63920214 32.80509301 70.45959132 32.81640625 73.28125 C32.83634761 75.45329928 32.85755673 77.62533721 32.87988281 79.79736328 C32.89104126 80.92934143 32.90219971 82.06131958 32.91369629 83.2276001 C33.2222787 110.64223367 35.14117858 136.87912585 40.63476562 163.76000977 C42.79623227 174.60617669 44.388414 185.52580717 45.890625 196.48046875 C46.02335815 197.44698364 46.15609131 198.41349854 46.29284668 199.40930176 C48.23583204 213.81992714 49.35538814 228.07449765 49.23925781 242.61938477 C49.24070801 244.48614868 49.24070801 244.48614868 49.2421875 246.390625 C49.22494629 247.46578369 49.20770508 248.54094238 49.18994141 249.64868164 C49.75855323 253.14259492 50.88327955 254.26855914 53.640625 256.41796875 C54.630625 256.74796875 55.620625 257.07796875 56.640625 257.41796875 C56.59421875 258.0934375 56.5478125 258.76890625 56.5 259.46484375 C56.39073979 262.16513185 56.35044661 264.72955128 56.640625 267.41796875 C57.93296107 268.79107582 59.26499646 270.12831699 60.640625 271.41796875 C62.94456142 284.98559432 53.08468699 301.6564345 45.51171875 312.453125 C26.04679669 337.21083445 -3.10371998 348.87995994 -33.6003418 353.02099609 C-40.01533267 353.69845113 -46.41377327 353.81133312 -52.859375 353.79296875 C-53.89819824 353.79265152 -53.89819824 353.79265152 -54.95800781 353.79232788 C-73.20214752 353.73712031 -90.19323005 350.50312298 -107.359375 344.41796875 C-108.91011719 343.88429688 -108.91011719 343.88429688 -110.4921875 343.33984375 C-137.71199208 333.45439043 -162.37021003 318.13417997 -184.359375 299.41796875 C-185.37515625 298.58652344 -186.3909375 297.75507813 -187.4375 296.8984375 C-202.00886127 284.86338091 -215.84097568 271.42092584 -227.359375 256.41796875 C-228.8354487 254.64455646 -230.31473542 252.87381459 -231.796875 251.10546875 C-250.79241644 227.82273914 -275.92909866 193.37014003 -279.796875 162.98046875 C-279.24843884 159.76819983 -278.95314644 158.46154625 -276.359375 156.41796875 C-273.24233527 155.78629592 -270.43375228 155.56012691 -267.359375 156.41796875 C-263.1530056 160.39417831 -261.762503 165.34336588 -259.921875 170.66796875 C-250.16192438 197.31347694 -234.81665879 222.08799046 -216.66601562 243.85107422 C-215.32625614 245.45768415 -214.0073078 247.08010521 -212.6875 248.703125 C-201.00157295 262.87402585 -187.90676226 276.19209476 -173.359375 287.41796875 C-172.24689637 288.3387108 -171.13774365 289.26348038 -170.03125 290.19140625 C-160.37140277 298.23103543 -150.12550507 304.95552898 -139.359375 311.41796875 C-138.68293945 311.83175781 -138.00650391 312.24554688 -137.30957031 312.671875 C-106.7404742 331.29919752 -68.78842545 342.7199438 -32.98828125 335.85546875 C-30.39265011 335.42350636 -27.98507954 335.34172325 -25.359375 335.41796875 C-25.359375 334.75796875 -25.359375 334.09796875 -25.359375 333.41796875 C-24.34359375 332.89589844 -23.3278125 332.37382812 -22.28125 331.8359375 C-12.67942305 326.75812705 -4.93777899 321.18263152 2.640625 313.41796875 C3.30449219 312.77472656 3.96835937 312.13148438 4.65234375 311.46875 C21.4968303 294.01861899 26.14249575 266.8557381 25.92602539 243.56469727 C25.26628481 212.20263227 20.51600906 181.34307763 15.01489258 150.52685547 C13.47496643 141.83360457 12.10548269 133.25137432 11.640625 124.41796875 C12.341875 125.07796875 13.043125 125.73796875 13.765625 126.41796875 C17.11861248 128.75048178 18.64262336 129.0263603 22.640625 128.41796875 C24.67944595 127.54667568 24.67944595 127.54667568 25.640625 125.41796875 C26.50186098 121.91150797 26.77822269 120.71923263 25.640625 117.41796875 C20.98507371 111.90027834 15.55997381 107.91202638 9.265625 104.48046875 C2.90253945 100.20839716 2.44806984 93.63461249 0.8984375 86.6015625 C-5.55837424 58.07059254 -25.54909773 31.28232432 -46.359375 11.41796875 C-44.74352239 8.18626354 -41.35861102 7.73143443 -38.109375 6.60546875 C-37.3659082 6.34556152 -36.62244141 6.0856543 -35.85644531 5.81787109 C-29.68561887 3.7308666 -23.44195753 2.06183546 -17.109375 0.54296875 C-16.21702148 0.32793701 -15.32466797 0.11290527 -14.40527344 -0.10864258 C-3.80637594 -2.5522885 -3.80637594 -2.5522885 0 0 Z " fill="#CC2F42" transform="translate(377.359375,158.58203125)"/>
<path d="M0 0 C4.36308417 4.22457357 8.57204046 8.51660838 9.3359375 14.734375 C9.43585147 22.44773368 8.70583501 27.88136311 3.45703125 33.71484375 C-3.36979718 40.10425526 -11.27781374 41.39505342 -20.25 42.375 C-39.41326649 44.74115419 -57.87464264 49.96969739 -75.625 57.5625 C-76.28854492 57.84335449 -76.95208984 58.12420898 -77.63574219 58.41357422 C-81.56658366 60.14907401 -84.9055552 61.99879647 -88 65 C-88.91080284 70.86961831 -87.48264133 74.67501417 -85.15234375 80.015625 C-83.72938264 83.70085309 -82.75389147 87.41781798 -81.8125 91.25 C-81.64588867 91.92353516 -81.47927734 92.59707031 -81.30761719 93.29101562 C-78.94417914 103.10389391 -76.18282887 115.09145587 -81.6640625 124.28515625 C-85.28298207 128.93049453 -89.36857086 132.19136582 -95 134 C-102.6510766 134.83290201 -108.87275163 134.87678952 -115 130 C-121.37045451 124.02297023 -123.63234792 117.88151834 -124.875 109.375 C-127.31048064 93.65327942 -134.56090561 77.3172301 -147.375 67.4375 C-157.75808008 60.47436618 -169.78420212 58.26110702 -182 57 C-177.34567699 42.1235657 -168.32471883 30.12628593 -155 22 C-149.88879186 19.6319632 -145.56195638 19.01202091 -140 20 C-134.01457822 22.44916297 -128.38536028 25.40975981 -123 29 C-117.70247493 28.75665079 -114.42249623 27.36517158 -110.0625 24.4375 C-104.32903725 20.68629226 -98.41064846 17.60243833 -92.20532227 14.70288086 C-88.81530477 13.08087298 -87.13082256 12.19623384 -85 9 C-84.7215625 7.4840625 -84.7215625 7.4840625 -84.4375 5.9375 C-83 3 -83 3 -80.87109375 2.16796875 C-78.58250335 1.67013766 -76.32501192 1.27747056 -74 1 C-73.505 2.485 -73.505 2.485 -73 4 C-66.50873468 5.22546771 -61.90699795 4.56286487 -55.625 2.6875 C-53.93541034 2.21430489 -52.24531043 1.74292761 -50.5546875 1.2734375 C-49.75901367 1.04881836 -48.96333984 0.82419922 -48.14355469 0.59277344 C-44.13121311 -0.51678981 -40.10771351 -1.33994619 -36 -2 C-34.85402344 -2.18433594 -33.70804688 -2.36867188 -32.52734375 -2.55859375 C-7.85141071 -6.19848214 -7.85141071 -6.19848214 0 0 Z " fill="#F57373" transform="translate(399,99)"/>
<path d="M0 0 C3.44757802 0.96197584 4.34848103 2.62419725 6.25390625 5.62890625 C7.5607089 8.65741111 8.61419339 11.76272487 9.69140625 14.87890625 C19.45135687 41.52441444 34.79662246 66.29892796 52.94726562 88.06201172 C54.28702511 89.66862165 55.60597345 91.29104271 56.92578125 92.9140625 C68.6117083 107.08496335 81.70651899 120.40303226 96.25390625 131.62890625 C97.36638488 132.5496483 98.4755376 133.47441788 99.58203125 134.40234375 C109.24187848 142.44197293 119.48777618 149.16646648 130.25390625 155.62890625 C130.9303418 156.04269531 131.60677734 156.45648438 132.30371094 156.8828125 C163.75361465 176.04685639 202.55868218 187.21804777 239.25390625 179.62890625 C239.92599121 179.5 240.59807617 179.37109375 241.29052734 179.23828125 C264.42766393 174.78902997 287.81281383 166.398063 302.25390625 146.62890625 C307.4820362 138.24211446 311.29161774 129.62788645 314.17626953 120.17578125 C315.1458884 117.12613859 315.93636932 114.94206767 318.23828125 112.671875 C321.1241035 111.17862976 323.05405075 111.16226066 326.25390625 111.62890625 C328.62890625 113.12890625 328.62890625 113.12890625 330.25390625 115.62890625 C332.55784267 129.19653182 322.69796824 145.867372 315.125 156.6640625 C295.66007794 181.42177195 266.50956127 193.09089744 236.01293945 197.23193359 C229.59794858 197.90938863 223.19950798 198.02227062 216.75390625 198.00390625 C215.71508301 198.00358902 215.71508301 198.00358902 214.65527344 198.00326538 C196.41113373 197.94805781 179.4200512 194.71406048 162.25390625 188.62890625 C160.70316406 188.09523438 160.70316406 188.09523438 159.12109375 187.55078125 C131.90128917 177.66532793 107.24307122 162.34511747 85.25390625 143.62890625 C84.238125 142.79746094 83.22234375 141.96601563 82.17578125 141.109375 C67.60441998 129.07431841 53.77230557 115.63186334 42.25390625 100.62890625 C40.77783255 98.85549396 39.29854583 97.08475209 37.81640625 95.31640625 C18.82086481 72.03367664 -6.31581741 37.58107753 -10.18359375 7.19140625 C-9.06778693 0.65596628 -6.02981282 0.17344639 0 0 Z " fill="#010000" transform="translate(107.74609375,314.37109375)"/>
<path d="M0 0 C2.8703154 1.58362229 3.07264368 3.23075052 4.0625 6.375 C4.84955988 9.89437343 5.36577761 13.43101522 5.875 17 C9.00558513 37.81480647 16.056557 57.50777874 26 76 C26.88260498 76.01458252 27.76520996 76.02916504 28.67456055 76.04418945 C31.96438643 76.10542067 35.2533993 76.1796033 38.54272461 76.26245117 C39.96351202 76.29560557 41.38442813 76.32366692 42.80541992 76.34643555 C44.8539082 76.38015847 46.9012272 76.43247745 48.94921875 76.48828125 C50.79519653 76.52755737 50.79519653 76.52755737 52.6784668 76.56762695 C56.51838741 77.0674799 59.23921411 78.23921411 62 81 C62.57281784 87.07186907 62.57281784 87.07186907 60.65234375 90.18359375 C56.47727536 93.04280848 52.19940889 92.67750533 47.25 92.75 C46.26644531 92.77964844 45.28289062 92.80929687 44.26953125 92.83984375 C41.84627224 92.91042411 39.42396846 92.96317701 37 93 C45.41304834 104.01664092 45.41304834 104.01664092 55 114 C60 119 60 119 61.5234375 120.6640625 C66.62318264 126.07558246 72.3347743 130.38793958 78.36450195 134.69946289 C82.16075027 137.45093098 85.41057302 140.0054576 88 144 C87.936318 147.18409977 87.51040601 149.14932332 85.875 151.875 C82.83928997 153.69642602 80.48315862 153.32765909 77 153 C74.41821033 151.76715092 72.25128475 150.12879102 70 148.375 C69.4225 147.94832031 68.845 147.52164063 68.25 147.08203125 C64.00660026 143.90895332 59.9877387 140.48624117 56 137 C56.02094727 137.58491211 56.04189453 138.16982422 56.06347656 138.77246094 C56.14680115 141.43146465 56.19870897 144.09019355 56.25 146.75 C56.28351563 147.67039062 56.31703125 148.59078125 56.3515625 149.5390625 C56.45018263 156.34385146 56.45018263 156.34385146 54.20703125 159.61328125 C51.00108412 161.62763741 48.70200449 161.47116421 45 161 C42.18324581 159.44592872 41.93181799 157.79811355 40.8984375 154.73828125 C39.69135385 149.76529845 40.05319082 144.97627045 40.28369141 139.89868164 C41.32376784 126.8762748 41.32376784 126.8762748 36.125 115.5625 C34.44040031 114.01541865 32.73095668 112.4950337 31 111 C29.25262916 108.89832356 27.57752199 106.80522334 25.9375 104.625 C25.52113281 104.08415771 25.10476562 103.54331543 24.67578125 102.98608398 C20.3206282 97.2639913 16.63563419 91.19900761 13 85 C12.54367188 84.25234375 12.08734375 83.5046875 11.6171875 82.734375 C9.9262768 79.92013201 9 78.34670642 9 75 C8.34 75 7.68 75 7 75 C6.96261719 75.78761719 6.92523438 76.57523437 6.88671875 77.38671875 C5.67580829 97.44984309 5.67580829 97.44984309 1.61328125 102.83984375 C-1.20412139 104.86591781 -3.67278556 104.40860528 -7 104 C-9.4375 102.5625 -9.4375 102.5625 -11 100 C-11.36090034 93.08841793 -10.48401136 86.66462032 -9.25 79.875 C-9.07315674 78.86816162 -8.89631348 77.86132324 -8.71411133 76.82397461 C-7.65253221 70.97055179 -6.35177268 65.27143715 -4.6875 59.5625 C-2.35966997 51.25929525 -3.65885462 45.90199762 -6.171875 37.80859375 C-8.68433356 29.28756685 -10.23768748 20.7212751 -10.9375 11.875 C-11.00727051 11.1523999 -11.07704102 10.4297998 -11.14892578 9.68530273 C-11.36418891 6.21858415 -11.28272996 4.39295729 -9.2265625 1.53515625 C-6.02861637 -0.66974345 -3.79098077 -0.48248846 0 0 Z " fill="#040101" transform="translate(174,262)"/>
<path d="M0 0 C1.20720703 -0.01611328 2.41441406 -0.03222656 3.65820312 -0.04882812 C18.93724286 -0.05709153 31.79034615 5.3562855 45.1875 12.3125 C42.60937252 14.89062748 39.64331659 16.34741479 36.4375 18 C35.8290625 18.33322266 35.220625 18.66644531 34.59375 19.00976562 C30.3180889 21.20698035 27.79419867 21.58801065 23.1875 20.3125 C22.26453125 20.06371094 21.3415625 19.81492187 20.390625 19.55859375 C19.41609375 19.29175781 18.4415625 19.02492188 17.4375 18.75 C3.79321703 15.60011982 -10.39606543 15.72953196 -22.671875 23.0078125 C-49.34501862 41.20744365 -59.75665637 76.22604081 -65.8125 106.3125 C-65.96847656 107.57707031 -66.12445313 108.84164062 -66.28515625 110.14453125 C-67.31337508 116.32146069 -71.0592089 120.91702341 -75.875 124.75 C-76.844375 125.265625 -77.81375 125.78125 -78.8125 126.3125 C-79.575625 126.725 -80.33875 127.1375 -81.125 127.5625 C-83.77199993 128.30119765 -85.75179441 128.38890078 -88.48046875 128.359375 C-89.29153076 128.35260742 -90.10259277 128.34583984 -90.93823242 128.33886719 C-91.55674072 128.33016602 -92.17524902 128.32146484 -92.8125 128.3125 C-91.39974672 121.69572693 -89.96500681 115.08401701 -88.50927734 108.4765625 C-88.06954251 106.47972878 -87.63206134 104.48239619 -87.19775391 102.484375 C-79.902703 69.13557087 -66.58607745 29.45630871 -36.41796875 9.83984375 C-23.99134539 2.55527144 -14.32975192 -0.03788935 0 0 Z " fill="#79222D" transform="translate(255.8125,87.6875)"/>
<path d="M0 0 C0.49740717 5.96888599 -0.58224889 10.03972405 -4 15 C-10.85667466 22.70724949 -19.42807169 24.30224418 -29.25 25.375 C-48.41326649 27.74115419 -66.87464264 32.96969739 -84.625 40.5625 C-85.28854492 40.84335449 -85.95208984 41.12420898 -86.63574219 41.41357422 C-90.56658366 43.14907401 -93.9055552 44.99879647 -97 48 C-97.91080284 53.86961831 -96.48264133 57.67501417 -94.15234375 63.015625 C-92.72938264 66.70085309 -91.75389147 70.41781798 -90.8125 74.25 C-90.64588867 74.92353516 -90.47927734 75.59707031 -90.30761719 76.29101562 C-87.94595617 86.09651579 -85.1767898 98.09687867 -90.6640625 107.28125 C-94.48232196 112.1936306 -97.86115555 114.89351087 -104 116 C-104.17539307 115.11143311 -104.35078613 114.22286621 -104.53149414 113.30737305 C-105.3670879 109.09908794 -106.21146671 104.89268696 -107.0625 100.6875 C-107.21695587 99.92368011 -107.37141174 99.15986023 -107.5305481 98.37289429 C-109.91876851 86.62754044 -112.63780614 75.03900287 -115.86547852 63.49291992 C-117.82696536 56.33763694 -118.95531227 50.21832621 -116.8125 42.9375 C-116.59207031 42.14214844 -116.37164062 41.34679687 -116.14453125 40.52734375 C-113.16544567 33.94895341 -108.88742307 30.91854929 -102.5625 28 C-101.85440186 27.66170166 -101.14630371 27.32340332 -100.41674805 26.97485352 C-98.28552667 25.96562876 -96.14463678 24.98033278 -94 24 C-92.87078125 23.47277344 -91.7415625 22.94554687 -90.578125 22.40234375 C-68.90832467 12.68203858 -45.4941085 6.36754892 -22.1875 2.125 C-21.0130835 1.90956543 -19.83866699 1.69413086 -18.62866211 1.47216797 C-12.31949568 0.37795662 -6.40199182 -0.23131533 0 0 Z " fill="#E35454" transform="translate(408,116)"/>
<path d="M0 0 C1.08089401 0.00007553 2.16178802 0.00015106 3.2754364 0.00022888 C4.44113663 0.00539017 5.60683685 0.01055145 6.80786133 0.01586914 C8.5993737 0.01799156 8.5993737 0.01799156 10.42707825 0.02015686 C14.24804166 0.0257619 18.06894683 0.03831528 21.88989258 0.05102539 C24.47778236 0.05603974 27.06567305 0.06060276 29.65356445 0.06469727 C36.00319375 0.07573296 42.35278901 0.09247603 48.70239258 0.11352539 C48.32878601 0.88752182 48.32878601 0.88752182 47.94763184 1.67715454 C43.3802204 11.16302225 38.84110401 20.59869432 35.20239258 30.48852539 C34.86981445 31.36250977 34.53723633 32.23649414 34.19458008 33.13696289 C32.6984122 37.1267439 31.46635816 40.91079205 30.70239258 45.11352539 C25.7586359 45.23821272 20.81581751 45.32836929 15.87084961 45.38818359 C14.1929528 45.4131475 12.51516271 45.44713158 10.83764648 45.49072266 C-7.86089778 45.96403304 -7.86089778 45.96403304 -15.29760742 40.11352539 C-21.42251135 33.5796295 -22.79758358 28.17385607 -22.69995117 19.28930664 C-21.92412479 13.1655508 -18.99007423 8.31414798 -14.22338867 4.41821289 C-9.51462397 1.37187713 -5.6462376 -0.01316139 0 0 Z " fill="#F57272" transform="translate(108.297607421875,107.886474609375)"/>
<path d="M0 0 C2.12639411 2.02161527 3.51798205 3.62438001 5.125 6 C5.55530518 6.60231445 5.98561035 7.20462891 6.42895508 7.82519531 C7.64092609 9.53626736 8.82079714 11.26628784 10 13 C10.49628906 13.67546875 10.99257813 14.3509375 11.50390625 15.046875 C28.55892123 39.58808467 27.74877689 70.54187018 27 99 C26.01 99.33 25.02 99.66 24 100 C19.90506058 97.27004039 19.83055272 94.10737821 18.8125 89.5625 C11.21783065 58.5548706 -7.05242192 30.90450635 -30 9 C-28.28395225 5.56790451 -24.2124341 5.11358299 -20.75 3.9375 C-19.98558594 3.66873047 -19.22117187 3.39996094 -18.43359375 3.12304688 C-12.3154339 1.00440948 -6.54439288 -0.81622717 0 0 Z " fill="#EC3946" transform="translate(361,161)"/>
<path d="M0 0 C14.77159624 1.39285523 25.55599522 3.49175293 36 15 C42.42504218 23.62984612 44.94772986 33.01793051 46.875 43.4375 C49.08433793 54.59032451 52.840785 62.90993089 61 71 C49.87984997 71.88829601 41.5266208 70.52343315 32.83984375 63.171875 C26.26534911 56.30425002 24.13283233 48.35138685 22.5625 39.1875 C19.96879806 24.10363503 14.22622533 11.54871424 2 2 C1.34 1.34 0.68 0.68 0 0 Z " fill="#CB2F42" transform="translate(214,170)"/>
<path d="M0 0 C1.25425781 0.05027344 2.50851563 0.10054688 3.80078125 0.15234375 C5.07050781 0.17941406 6.34023437 0.20648438 7.6484375 0.234375 C10.78426031 0.30510785 13.91666788 0.40377883 17.05078125 0.52734375 C16.49390625 1.65527344 15.93703125 2.78320312 15.36328125 3.9453125 C11.05049941 12.79716411 7.05317909 21.69638831 3.55078125 30.90234375 C3.21304688 31.78688232 2.8753125 32.6714209 2.52734375 33.58276367 C1.01635287 37.62755201 -0.09435807 41.25304034 -0.94921875 45.52734375 C-8.86921875 45.52734375 -16.78921875 45.52734375 -24.94921875 45.52734375 C-23.02077326 31.7315414 -19.76535982 19.19771463 -13.94921875 6.52734375 C-13.50964844 5.39683594 -13.07007812 4.26632813 -12.6171875 3.1015625 C-8.70683717 -0.67138167 -5.27385551 -0.08460731 0 0 Z " fill="#E25454" transform="translate(139.94921875,107.47265625)"/>
<path d="M0 0 C0.53367187 0.28875 1.06734375 0.5775 1.6171875 0.875 C-0.69650585 3.26581646 -2.99547519 5.55245112 -5.5546875 7.68359375 C-15.19688976 15.80576731 -22.31362046 25.89399672 -28.3828125 36.875 C-30.71614583 36.54166667 -33.04947917 36.20833333 -35.3828125 35.875 C-36.61902344 35.69839844 -37.85523438 35.52179688 -39.12890625 35.33984375 C-42.546875 34.8515625 -45.96484375 34.36328125 -49.3828125 33.875 C-44.72848949 18.9985657 -35.70753133 7.00128593 -22.3828125 -1.125 C-14.57695548 -4.80541949 -7.55117077 -3.76252108 0 0 Z " fill="#E15353" transform="translate(266.3828125,122.125)"/>
<path d="M0 0 C1.13616558 3.40849674 0.73378013 4.5625602 0 8 C-1.15922496 23.39298711 3.12591918 33.48023905 13 45 C0.59682315 45.77925718 -8.53418017 43.13680787 -18 35 C-13.8279552 22.30247235 -8.08453096 10.66470042 0 0 Z " fill="#C92E41" transform="translate(131,178)"/>
</svg>
