<?xml version="1.0"?><svg id="Icons" viewBox="0 0 60 60" xmlns="http://www.w3.org/2000/svg"><defs><style>.cls-1{fill:#f8536c;}.cls-2{fill:#faaa47;}.cls-3{fill:#fff;}.cls-4{fill:#373737;}</style></defs><path class="cls-1" d="M20.861,36.28,4.172,19.51a10.848,10.848,0,0,1,0-15.33,10.778,10.778,0,0,1,15.289,0L22,6.73l2.55-2.55a10.778,10.778,0,0,1,15.289,0,10.877,10.877,0,0,1,.21,15.11Z"/><path class="cls-2" d="M58.389,40.48,40.48,58.389a2.086,2.086,0,0,1-2.951,0L19.611,40.48a2.086,2.086,0,0,1,0-2.951L37.529,19.611a2.086,2.086,0,0,1,2.951,0L58.389,37.529A2.086,2.086,0,0,1,58.389,40.48Z"/><circle class="cls-3" cx="39" cy="48" r="3"/><rect class="cls-3" height="14" rx="3" width="6" x="36" y="27"/><path class="cls-4" d="M41.46,19.177a11.808,11.808,0,0,0-.909-15.7A11.613,11.613,0,0,0,32.246,0h-.085a11.594,11.594,0,0,0-8.317,3.473L22,5.314l-1.83-1.838A11.638,11.638,0,0,0,11.848,0h-.042A11.523,11.523,0,0,0,3.465,3.473a11.853,11.853,0,0,0,0,16.742L19.448,36.278l-.544.543a3.089,3.089,0,0,0,0,4.367L36.822,59.1a3.094,3.094,0,0,0,4.365,0L59.1,41.187a3.092,3.092,0,0,0,0-4.365Zm16.222,20.6-17.91,17.91a1.09,1.09,0,0,1-1.536,0L20.318,39.773a1.088,1.088,0,0,1,0-1.537l1.246-1.245,0,0,0,0,7.28-7.279a1,1,0,0,0-1.414-1.414l-6.572,6.571L4.879,18.8A9.855,9.855,0,0,1,4.886,4.88,9.691,9.691,0,0,1,11.771,2h.07a9.653,9.653,0,0,1,6.911,2.886l2.54,2.551A1,1,0,0,0,22,7.73h0a1,1,0,0,0,.707-.292l2.555-2.556A9.615,9.615,0,0,1,32.168,2h.071a9.633,9.633,0,0,1,6.892,2.885,9.812,9.812,0,0,1,.6,13.237,3.138,3.138,0,0,0-2.911.782l-6.388,6.389a1,1,0,1,0,1.414,1.414l6.389-6.389a1.111,1.111,0,0,1,1.536,0L57.682,38.236A1.088,1.088,0,0,1,57.682,39.772Z"/><path class="cls-4" d="M39,44a4,4,0,1,0,4,4A4,4,0,0,0,39,44Zm0,6a2,2,0,1,1,2-2A2,2,0,0,1,39,50Z"/><path class="cls-4" d="M39,26a4,4,0,0,0-4,4v8a4,4,0,0,0,8,0V30A4,4,0,0,0,39,26Zm2,12a2,2,0,0,1-4,0V30a2,2,0,0,1,4,0Z"/><path class="cls-4" d="M34,18a1,1,0,0,0-1-1H28.207a1.491,1.491,0,0,0-1.061.44l-.873.872-.9-1.8a1.436,1.436,0,0,0-1.386-.828,1.485,1.485,0,0,0-1.335.909l-1.49,3.476L19.406,14.2A1.689,1.689,0,0,0,18,13.013a1.71,1.71,0,0,0-1.657.807L14.434,17H11a1,1,0,0,0,0,2h3.717A1.505,1.505,0,0,0,16,18.27l1.689-2.817,1.94,6.464A1.5,1.5,0,0,0,21,23c.03,0,.061,0,.091,0a1.5,1.5,0,0,0,1.392-.921l1.589-3.706.726,1.452a1.5,1.5,0,0,0,1.1.809,1.485,1.485,0,0,0,1.3-.42L28.414,19H33A1,1,0,0,0,34,18Z"/></svg>